REM DIRINDEX 1\2,1\3,1\4,1\5,1\6,1\7,1\8
REM DIRNAME folder01,folder02,folder03,folder04,folder05,folder06,folder07,folder08
TITLE ""
FILE "009 でる文29.mp3" MP3
  TRACK 01 AUDIO
    TITLE "0:"
    INDEX 01 00:00:00
  TRACK 02 AUDIO
    TITLE "8:cjc150_1307"
    INDEX 01 00:00:01
  TRACK 03 AUDIO
    TITLE "0:"
    INDEX 01 00:01:56
  TRACK 04 AUDIO
    TITLE "2:cjc150_1308"
    INDEX 01 00:02:42
  TRACK 05 AUDIO
    TITLE "0:"
    INDEX 01 00:08:23
  TRACK 06 AUDIO
    TITLE "8:cjc150_1309"
    INDEX 01 00:09:49
  TRACK 07 AUDIO
    TITLE "0:"
    INDEX 01 00:12:28
  TRACK 08 AUDIO
    TITLE "3:cjc150_1310"
    INDEX 01 00:12:69
  TRACK 09 AUDIO
    TITLE "3:cjc150_1311"
    INDEX 01 00:14:72
  TRACK 10 AUDIO
    TITLE "3:cjc150_1312"
    INDEX 01 00:16:73
  TRACK 11 AUDIO
    TITLE "3:cjc150_1313"
    INDEX 01 00:18:19
  TRACK 12 AUDIO
    TITLE "3:cjc150_1314"
    INDEX 01 00:19:42
  TRACK 13 AUDIO
    TITLE "3:cjc150_1315"
    INDEX 01 00:21:15
  TRACK 14 AUDIO
    TITLE "3:cjc150_1316"
    INDEX 01 00:22:72
  TRACK 15 AUDIO
    TITLE "3:cjc150_1317"
    INDEX 01 00:24:27
  TRACK 16 AUDIO
    TITLE "3:cjc150_1318"
    INDEX 01 00:25:52
  TRACK 17 AUDIO
    TITLE "3:cjc150_1319"
    INDEX 01 00:27:51
  TRACK 18 AUDIO
    TITLE "8:cjc150_1320"
    INDEX 01 00:29:48
  TRACK 19 AUDIO
    TITLE "0:"
    INDEX 01 00:32:25
  TRACK 20 AUDIO
    TITLE "4:cjc150_1321"
    INDEX 01 00:33:05
  TRACK 21 AUDIO
    TITLE "4:cjc150_1322"
    INDEX 01 00:35:47
  TRACK 22 AUDIO
    TITLE "4:cjc150_1323"
    INDEX 01 00:38:43
  TRACK 23 AUDIO
    TITLE "4:cjc150_1324"
    INDEX 01 00:40:64
  TRACK 24 AUDIO
    TITLE "4:cjc150_1325"
    INDEX 01 00:43:46
  TRACK 25 AUDIO
    TITLE "4:cjc150_1326"
    INDEX 01 00:45:45
  TRACK 26 AUDIO
    TITLE "8:cjc150_1327"
    INDEX 01 00:47:44
  TRACK 27 AUDIO
    TITLE "0:"
    INDEX 01 00:50:39
  TRACK 28 AUDIO
    TITLE "5:cjc150_1328"
    INDEX 01 00:51:20
  TRACK 29 AUDIO
    TITLE "5:cjc150_1329"
    INDEX 01 00:53:37
  TRACK 30 AUDIO
    TITLE "5:cjc150_1330"
    INDEX 01 00:56:20
  TRACK 31 AUDIO
    TITLE "5:cjc150_1331"
    INDEX 01 00:58:22
  TRACK 32 AUDIO
    TITLE "5:cjc150_1332"
    INDEX 01 01:00:19
  TRACK 33 AUDIO
    TITLE "5:cjc150_1333"
    INDEX 01 01:01:48
  TRACK 34 AUDIO
    TITLE "5:cjc150_1334"
    INDEX 01 01:03:61
  TRACK 35 AUDIO
    TITLE "5:cjc150_1335"
    INDEX 01 01:05:07
  TRACK 36 AUDIO
    TITLE "5:cjc150_1336"
    INDEX 01 01:06:28
  TRACK 37 AUDIO
    TITLE "5:cjc150_1337"
    INDEX 01 01:08:09
  TRACK 38 AUDIO
    TITLE "5:cjc150_1338"
    INDEX 01 01:10:69
  TRACK 39 AUDIO
    TITLE "5:cjc150_1339"
    INDEX 01 01:12:40
  TRACK 40 AUDIO
    TITLE "5:cjc150_1340"
    INDEX 01 01:14:25
  TRACK 41 AUDIO
    TITLE "5:cjc150_1341"
    INDEX 01 01:16:11
  TRACK 42 AUDIO
    TITLE "5:cjc150_1342"
    INDEX 01 01:18:25
  TRACK 43 AUDIO
    TITLE "5:cjc150_1343"
    INDEX 01 01:19:56
  TRACK 44 AUDIO
    TITLE "5:cjc150_1344"
    INDEX 01 01:21:08
  TRACK 45 AUDIO
    TITLE "5:cjc150_1345"
    INDEX 01 01:22:72
  TRACK 46 AUDIO
    TITLE "5:cjc150_1346"
    INDEX 01 01:25:70
  TRACK 47 AUDIO
    TITLE "5:cjc150_1347"
    INDEX 01 01:27:67
  TRACK 48 AUDIO
    TITLE "8:cjc150_1348"
    INDEX 01 01:30:05
  TRACK 49 AUDIO
    TITLE "0:"
    INDEX 01 01:32:62
  TRACK 50 AUDIO
    TITLE "6:cjc150_1349"
    INDEX 01 01:33:44
  TRACK 51 AUDIO
    TITLE "6:cjc150_1350"
    INDEX 01 01:36:39
  TRACK 52 AUDIO
    TITLE "6:cjc150_1351"
    INDEX 01 01:40:11
  TRACK 53 AUDIO
    TITLE "6:cjc150_1352"
    INDEX 01 01:42:49
  TRACK 54 AUDIO
    TITLE "6:cjc150_1353"
    INDEX 01 01:45:34
  TRACK 55 AUDIO
    TITLE "6:cjc150_1354"
    INDEX 01 01:48:12
  TRACK 56 AUDIO
    TITLE "6:cjc150_1355"
    INDEX 01 01:51:42
  TRACK 57 AUDIO
    TITLE "6:cjc150_1356"
    INDEX 01 01:53:61
  TRACK 58 AUDIO
    TITLE "6:cjc150_1357"
    INDEX 01 01:56:10
  TRACK 59 AUDIO
    TITLE "6:cjc150_1358"
    INDEX 01 01:57:72
  TRACK 60 AUDIO
    TITLE "6:cjc150_1359"
    INDEX 01 02:00:74
  TRACK 61 AUDIO
    TITLE "6:cjc150_1360"
    INDEX 01 02:03:02
  TRACK 62 AUDIO
    TITLE "8:cjc150_1361"
    INDEX 01 02:04:49
  TRACK 63 AUDIO
    TITLE "0:"
    INDEX 01 02:06:28
  TRACK 64 AUDIO
    TITLE "7:cjc150_1362"
    INDEX 01 02:07:12
  TRACK 65 AUDIO
    TITLE "7:cjc150_1363"
    INDEX 01 02:12:70
  TRACK 66 AUDIO
    TITLE "0:"
    INDEX 01 02:18:41
